<svg width="42" height="42" viewBox="0 0 42 42" fill="none" xmlns="http://www.w3.org/2000/svg">
<g clip-path="url(#clip0_10_276)">
<path d="M36.6356 10.204L26.7921 0.360527C26.5623 0.130676 26.2487 0 25.9219 0H8.69531C6.65987 0 5.00391 1.65596 5.00391 3.69141V38.3086C5.00391 40.344 6.65987 42 8.69531 42H33.3047C35.3401 42 36.9961 40.344 36.9961 38.3086V11.0742C36.9961 10.7387 36.8552 10.4236 36.6356 10.204ZM27.1523 4.20107L32.795 9.84375H28.3828C27.7043 9.84375 27.1523 9.29176 27.1523 8.61328V4.20107ZM33.3047 39.5391H8.69531C8.01683 39.5391 7.46484 38.9871 7.46484 38.3086V3.69141C7.46484 3.01293 8.01683 2.46094 8.69531 2.46094H24.6914V8.61328C24.6914 10.6487 26.3474 12.3047 28.3828 12.3047H34.5352V38.3086C34.5352 38.9871 33.9832 39.5391 33.3047 39.5391Z" fill="black"/>
<path d="M28.3828 17.3906H13.6172C12.9376 17.3906 12.3867 17.9415 12.3867 18.6211C12.3867 19.3006 12.9376 19.8516 13.6172 19.8516H28.3828C29.0624 19.8516 29.6133 19.3006 29.6133 18.6211C29.6133 17.9415 29.0624 17.3906 28.3828 17.3906Z" fill="black"/>
<path d="M28.3828 22.3125H13.6172C12.9376 22.3125 12.3867 22.8634 12.3867 23.543C12.3867 24.2225 12.9376 24.7734 13.6172 24.7734H28.3828C29.0624 24.7734 29.6133 24.2225 29.6133 23.543C29.6133 22.8634 29.0624 22.3125 28.3828 22.3125Z" fill="black"/>
<path d="M28.3828 27.2344H13.6172C12.9376 27.2344 12.3867 27.7853 12.3867 28.4648C12.3867 29.1444 12.9376 29.6953 13.6172 29.6953H28.3828C29.0624 29.6953 29.6133 29.1444 29.6133 28.4648C29.6133 27.7853 29.0624 27.2344 28.3828 27.2344Z" fill="black"/>
<path d="M23.4609 32.1562H13.6172C12.9376 32.1562 12.3867 32.7072 12.3867 33.3867C12.3867 34.0663 12.9376 34.6172 13.6172 34.6172H23.4609C24.1405 34.6172 24.6914 34.0663 24.6914 33.3867C24.6914 32.7072 24.1405 32.1562 23.4609 32.1562Z" fill="black"/>
</g>
<defs>
<clipPath id="clip0_10_276">
<rect width="42" height="42" fill="white"/>
</clipPath>
</defs>
</svg>
