<svg width="29" height="28" viewBox="0 0 29 28" fill="none" xmlns="http://www.w3.org/2000/svg">
<path d="M25.3878 14.6299H5.27062C5.0281 14.6299 4.79551 14.5341 4.62403 14.3634C4.45254 14.1927 4.3562 13.9613 4.3562 13.7199C4.3562 13.4786 4.45254 13.2471 4.62403 13.0765C4.79551 12.9058 5.0281 12.8099 5.27062 12.8099H25.3878C25.6303 12.8099 25.8629 12.9058 26.0344 13.0765C26.2059 13.2471 26.3022 13.4786 26.3022 13.7199C26.3022 13.9613 26.2059 14.1927 26.0344 14.3634C25.8629 14.5341 25.6303 14.6299 25.3878 14.6299Z" fill="#001B30"/>
<path d="M25.3878 7.65331H5.27062C5.0281 7.65331 4.79551 7.55744 4.62403 7.38678C4.45254 7.21612 4.3562 6.98466 4.3562 6.74331C4.3562 6.50197 4.45254 6.2705 4.62403 6.09985C4.79551 5.92919 5.0281 5.83331 5.27062 5.83331H25.3878C25.6303 5.83331 25.8629 5.92919 26.0344 6.09985C26.2059 6.2705 26.3022 6.50197 26.3022 6.74331C26.3022 6.98466 26.2059 7.21612 26.0344 7.38678C25.8629 7.55744 25.6303 7.65331 25.3878 7.65331Z" fill="#001B30"/>
<path d="M17.0338 21.6066H4.9072C4.60239 21.6066 4.3562 21.1994 4.3562 20.6966C4.3562 20.1937 4.60356 19.7866 4.9072 19.7866H17.0338C17.3386 19.7866 17.5848 20.1937 17.5848 20.6966C17.5848 21.1994 17.3386 21.6066 17.0338 21.6066Z" fill="#001B30"/>
</svg>
